<?xml version="1.0" encoding="UTF-8" standalone="no"?>
<!-- Created with Inkscape (http://www.inkscape.org/) -->

<svg
   xmlns:osb="http://www.openswatchbook.org/uri/2009/osb"
   xmlns:dc="http://purl.org/dc/elements/1.1/"
   xmlns:cc="http://creativecommons.org/ns#"
   xmlns:rdf="http://www.w3.org/1999/02/22-rdf-syntax-ns#"
   xmlns:svg="http://www.w3.org/2000/svg"
   xmlns="http://www.w3.org/2000/svg"
   xmlns:sodipodi="http://sodipodi.sourceforge.net/DTD/sodipodi-0.dtd"
   xmlns:inkscape="http://www.inkscape.org/namespaces/inkscape"
   width="163.23764mm"
   height="103.8398mm"
   viewBox="0 0 578.40109 367.93629"
   id="svg2"
   version="1.1"
   inkscape:version="0.91 r13725"
   sodipodi:docname="CambusLaser.svg">
  <sodipodi:namedview
     id="base"
     pagecolor="#ffffff"
     bordercolor="#666666"
     borderopacity="1.0"
     inkscape:pageopacity="0.0"
     inkscape:pageshadow="2"
     inkscape:zoom="1.4"
     inkscape:cx="167.18738"
     inkscape:cy="182.9874"
     inkscape:document-units="mm"
     inkscape:current-layer="layer1"
     showgrid="false"
     inkscape:window-width="1920"
     inkscape:window-height="1018"
     inkscape:window-x="-8"
     inkscape:window-y="-8"
     inkscape:window-maximized="1"
     fit-margin-bottom="1"
     fit-margin-top="1"
     fit-margin-right="1"
     fit-margin-left="1" />
  <defs
     id="defs4">
    <inkscape:path-effect
       effect="spiro"
       id="path-effect4251"
       is_visible="true" />
    <linearGradient
       inkscape:collect="always"
       id="linearGradient4239"
       osb:paint="gradient">
      <stop
         style="stop-color:#000000;stop-opacity:1;"
         offset="0"
         id="stop4241" />
      <stop
         style="stop-color:#000000;stop-opacity:0;"
         offset="1"
         id="stop4243" />
    </linearGradient>
    <linearGradient
       id="linearGradient4837"
       osb:paint="solid">
      <stop
         style="stop-color:#000000;stop-opacity:1;"
         offset="0"
         id="stop4835" />
    </linearGradient>
    <linearGradient
       id="linearGradient4817"
       osb:paint="solid">
      <stop
         style="stop-color:#000000;stop-opacity:1;"
         offset="0"
         id="stop4815" />
    </linearGradient>
    <linearGradient
       id="linearGradient4811"
       osb:paint="solid">
      <stop
         style="stop-color:#000000;stop-opacity:0.02912621;"
         offset="0"
         id="stop4809" />
    </linearGradient>
    <linearGradient
       id="linearGradient3921"
       osb:paint="solid">
      <stop
         style="stop-color:#000000;stop-opacity:1;"
         offset="0"
         id="stop3919" />
    </linearGradient>
    <linearGradient
       id="linearGradient2481"
       osb:paint="solid">
      <stop
         style="stop-color:#000002;stop-opacity:1;"
         offset="0"
         id="stop2479" />
    </linearGradient>
    <linearGradient
       id="linearGradient2446"
       osb:paint="solid">
      <stop
         style="stop-color:#000000;stop-opacity:0;"
         offset="0"
         id="stop2444" />
    </linearGradient>
  </defs>
  <metadata
     id="metadata7">
    <rdf:RDF>
      <cc:Work
         rdf:about="">
        <dc:format>image/svg+xml</dc:format>
        <dc:type
           rdf:resource="http://purl.org/dc/dcmitype/StillImage" />
        <dc:title></dc:title>
      </cc:Work>
    </rdf:RDF>
  </metadata>
  <g
     inkscape:label="Layer 1"
     inkscape:groupmode="layer"
     id="layer1"
     transform="translate(0.61449036,4.3306707)">
    <path
       id="path1217"
       d=""
       inkscape:connector-curvature="0"
       style="fill:none;stroke:#0000ff;stroke-width:0.009375mm" />
    <path
       id="path1316"
       d=""
       inkscape:connector-curvature="0"
       style="fill:none;stroke:#0000ff;stroke-width:0.009375mm" />
    <path
       id="path1756"
       d="m 39.77212,171.62669 1.3748,0.21629 0.26929,0.0424 1.6441,-0.25866 1.48464,-0.75472 1.17992,-1.17992 0.75473,-1.48465 0.25866,-1.64409 -0.25866,-1.6441 -0.75473,-1.48464 -1.17992,-1.17992 -1.48464,-0.75473 -1.6441,-0.26221 -0.26929,0.0429 -1.3748,0.21926 -1.48464,0.75473 -1.17993,1.17992 -0.75472,1.48464 -0.26221,1.6441 0.26221,1.64409 0.75472,1.48465 1.17993,1.17992 1.48464,0.75472 m 173.62204,138.18898 1.6441,0.26221 0.26929,-0.0429 1.37481,-0.21926 1.48464,-0.75473 1.17992,-1.17992 0.75473,-1.48464 0.2622,-1.6441 -0.2622,-1.64409 -0.75473,-1.48464 -1.17992,-1.17993 -1.48464,-0.75472 -1.37481,-0.2163 -0.26929,-0.0424 -1.6441,0.25867 -1.48464,0.75472 -1.17992,1.17993 -0.75473,1.48464 -0.25866,1.64409 0.25866,1.6441 0.75473,1.48464 1.17992,1.17992 z"
       inkscape:connector-curvature="0"
       style="fill:none;stroke:#000000;stroke-width:0.07086614;stroke-miterlimit:4;stroke-dasharray:none;stroke-opacity:1"
       sodipodi:nodetypes="cccccccccccccccccccccccccccccccccccccccccccccc" />
    <path
       id="path1838"
       inkscape:label="part"
       style="fill:none;stroke:#000000;stroke-width:0.07086614;stroke-miterlimit:4;stroke-dasharray:none"
       d="m 252.37738,314.08118 17.31023,0 0,-11.33857 15.45827,0 0,11.33857 17.14016,0 0,-11.33857 15.45827,0 0,11.33857 17.14015,0 0,-11.33857 15.45827,0 0,11.33857 17.14016,0 0,-11.33857 15.45827,0 0,11.33857 17.14015,0 0,-11.33857 15.45827,0 0,11.33857 17.14016,0 0,-11.33857 15.45827,0 0,11.33857 17.14015,0 0,-11.33857 15.45827,0 0,11.33857 17.31024,0"
       inkscape:connector-curvature="0" />
    <path
       id="path1840"
       inkscape:label="part"
       style="fill:none;stroke:#000000;stroke-width:0.07086614;stroke-miterlimit:4;stroke-dasharray:none"
       d="m 498.04667,314.08118 0,9.6189 -11.33858,0 0,14.778 11.33858,0 0,9.6189"
       inkscape:connector-curvature="0" />
    <path
       id="path1844"
       inkscape:label="part"
       style="fill:none;stroke:#000000;stroke-width:0.07086614;stroke-miterlimit:4;stroke-dasharray:none"
       d="m 252.37738,348.09698 0,-9.6189 11.33858,0 0,-14.778 -11.33858,0 0,-9.6189"
       inkscape:connector-curvature="0" />
    <path
       id="path1874"
       inkscape:label="part"
       style="fill:none;stroke:#000000;stroke-width:0.07086614;stroke-miterlimit:4;stroke-dasharray:none"
       d="m 528.85353,10.586649 9.27874,0 0,-11.3385795 15.45827,0 0,11.3385795 9.27874,0"
       inkscape:connector-curvature="0" />
    <path
       id="path1876"
       inkscape:label="part"
       style="fill:none;stroke:#000000;stroke-width:0.07086614;stroke-miterlimit:4;stroke-dasharray:none"
       d="m 562.86928,10.586649 0,4.68932 11.33858,0 0,15.45827 -11.33858,0 0,15.85781 11.33858,0 0,15.45827 -11.33858,0 0,15.85782 11.33858,0 0,15.45827 -11.33858,0 0,15.857821 11.33858,0 0,15.45826 -11.33858,0 0,15.85782 11.33858,0 0,15.45827 -11.33858,0 0,15.85782 11.33858,0 0,15.45827 -11.33858,0 0,4.68931"
       inkscape:connector-curvature="0" />
    <path
       id="path1878"
       inkscape:label="part"
       style="fill:none;stroke:#000000;stroke-width:0.07086614;stroke-miterlimit:4;stroke-dasharray:none"
       d="m 562.86928,192.00398 -9.27874,0 0,11.33858 -15.45827,0 0,-11.33858 -9.27874,0"
       inkscape:connector-curvature="0" />
    <path
       id="path1918"
       inkscape:label="part"
       style="fill:none;stroke:#000000;stroke-width:0.07086614;stroke-miterlimit:4;stroke-dasharray:none"
       d="m 2.9642498,133.65484 17.6503902,0 0,11.33858 14.77795,0 0,-11.33858 17.82048,0 0,11.33858 14.77795,0 0,-11.33858 17.82047,0 0,11.33858 14.77795,0 0,-11.33858 17.82048,0 0,11.33858 14.77795,0 0,-11.33858 17.82047,0 0,11.33858 14.77795,0 0,-11.33858 17.82048,0 0,11.33858 14.77795,0 0,-11.33858 17.82047,0 0,11.33858 14.77795,0 0,-11.33858 17.6504,0"
       inkscape:connector-curvature="0" />
    <path
       id="path1920"
       inkscape:label="part"
       style="fill:none;stroke:#000000;stroke-width:0.07086614;stroke-miterlimit:4;stroke-dasharray:none"
       d="m 248.63354,133.65484 0,16.36806 -11.33858,0 0,14.77795 11.33858,0 0,16.53813 -11.33858,0 0,14.77795 11.33858,0 0,16.53814 -11.33858,0 0,14.77795 11.33858,0 0,16.53813 -11.33858,0 0,14.77796 11.33858,0 0,16.53813 -11.33858,0 0,14.77795 11.33858,0 0,16.53814 -11.33858,0 0,14.77795 11.33858,0 0,16.36805"
       inkscape:connector-curvature="0" />
    <path
       id="path1922"
       inkscape:label="part"
       style="fill:none;stroke:#000000;stroke-width:0.07086614;stroke-miterlimit:4;stroke-dasharray:none"
       d="m 248.63354,337.74933 -17.6504,0 0,-11.33858 -14.77795,0 0,11.33858 -17.82047,0 0,-11.33858 -14.77795,0 0,11.33858 -17.82048,0 0,-11.33858 -14.77795,0 0,11.33858 -17.82047,0 0,-11.33858 -14.77795,0 0,11.33858 -17.82048,0 0,-11.33858 -14.77795,0 0,11.33858 -17.82047,0 0,-11.33858 -14.77795,0 0,11.33858 -17.82048,0 0,-11.33858 -14.77795,0 0,11.33858 -17.6503902,0"
       inkscape:connector-curvature="0" />
    <path
       id="path1924"
       inkscape:label="part"
       style="fill:none;stroke:#000000;stroke-width:0.07086614;stroke-miterlimit:4;stroke-dasharray:none"
       d="m 2.9642498,337.74933 0,-16.36805 11.3385802,0 0,-14.77795 -11.3385802,0 0,-16.53814 11.3385802,0 0,-14.77795 -11.3385802,0 0,-16.53813 11.3385802,0 0,-14.77796 -11.3385802,0 0,-16.53813 11.3385802,0 0,-14.77795 -11.3385802,0 0,-16.53814 11.3385802,0 0,-14.77795 -11.3385802,0 0,-16.53813 11.3385802,0 0,-14.77795 -11.3385802,0 0,-16.36806"
       inkscape:connector-curvature="0" />
    <path
       id="path1926"
       inkscape:label="part"
       style="fill:none;stroke:#000000;stroke-width:0.07086614;stroke-miterlimit:4;stroke-dasharray:none"
       d="m 466.40714,11.899109 9.27874,0 0,-11.3385795 15.45827,0 0,11.3385795 9.27874,0"
       inkscape:connector-curvature="0" />
    <path
       id="path1930"
       inkscape:label="part"
       style="fill:none;stroke:#000000;stroke-width:0.07086614;stroke-miterlimit:4;stroke-dasharray:none"
       d="m 500.42289,193.31644 -9.27874,0 0,11.33858 -15.45827,0 0,-11.33858 -9.27874,0"
       inkscape:connector-curvature="0" />
    <path
       id="path1932"
       inkscape:label="part"
       style="fill:none;stroke:#000000;stroke-width:0.07086614;stroke-miterlimit:4;stroke-dasharray:none"
       d="m 466.40714,193.31644 0,-4.68931 -11.33858,0 0,-15.45827 11.33858,0 0,-15.85782 -11.33858,0 0,-15.45827 11.33858,0 0,-15.85782 -11.33858,0 0,-15.45826 11.33858,0 0,-15.857821 -11.33858,0 0,-15.45827 11.33858,0 0,-15.85782 -11.33858,0 0,-15.45827 11.33858,0 0,-15.85781 -11.33858,0 0,-15.45827 11.33858,0 0,-4.68932"
       inkscape:connector-curvature="0" />
    <path
       id="path1944"
       inkscape:label="part"
       style="fill:none;stroke:#000000;stroke-width:0.07086614;stroke-miterlimit:4;stroke-dasharray:none"
       d="m 498.04667,253.63829 0,9.6189 -11.33858,0 0,14.77794 11.33858,0 0,9.6189"
       inkscape:connector-curvature="0" />
    <path
       id="path1946"
       inkscape:label="part"
       style="fill:none;stroke:#000000;stroke-width:0.07086614;stroke-miterlimit:4;stroke-dasharray:none"
       d="m 498.04667,287.65403 -17.31024,0 0,11.33858 -15.45827,0 0,-11.33858 -17.14015,0 0,11.33858 -15.45827,0 0,-11.33858 -17.14016,0 0,11.33858 -15.45827,0 0,-11.33858 -17.14015,0 0,11.33858 -15.45827,0 0,-11.33858 -17.14016,0 0,11.33858 -15.45827,0 0,-11.33858 -17.14015,0 0,11.33858 -15.45827,0 0,-11.33858 -17.14016,0 0,11.33858 -15.45827,0 0,-11.33858 -17.31023,0"
       inkscape:connector-curvature="0" />
    <path
       id="path1948"
       inkscape:label="part"
       style="fill:none;stroke:#000000;stroke-width:0.07086614;stroke-miterlimit:4;stroke-dasharray:none"
       d="m 252.37738,287.65403 0,-9.6189 11.33858,0 0,-14.77794 -11.33858,0 0,-9.6189"
       inkscape:connector-curvature="0" />
    <path
       style="fill:none;stroke:#000000;stroke-width:0.07086614;stroke-linecap:butt;stroke-linejoin:miter;stroke-miterlimit:4;stroke-dasharray:none;stroke-opacity:1"
       d="m 252.38422,354.40188 -0.007,-11.93 z"
       id="path2017"
       inkscape:connector-curvature="0" />
    <path
       style="fill:none;stroke:#000000;stroke-width:0.07086614;stroke-linecap:butt;stroke-linejoin:miter;stroke-miterlimit:4;stroke-dasharray:none;stroke-opacity:1"
       d="m 252.38423,360.02688 245.5915,-0.5859 0.071,-11.3441"
       id="path2021"
       inkscape:connector-curvature="0" />
    <path
       style="fill:none;stroke:#000000;stroke-width:0.07086614;stroke-linecap:butt;stroke-linejoin:miter;stroke-miterlimit:4;stroke-dasharray:none;stroke-opacity:1"
       d="m 252.38416,241.70834 245.59151,0.58593 0.071,11.34402"
       id="path2021-4"
       inkscape:connector-curvature="0" />
    <path
       style="fill:none;stroke:#000000;stroke-width:0.07086614;stroke-linecap:butt;stroke-linejoin:miter;stroke-miterlimit:4;stroke-dasharray:none;stroke-opacity:1"
       d="m 252.39116,253.63829 -0.007,-11.92995 z"
       id="path2017-5"
       inkscape:connector-curvature="0" />
    <path
       style="fill:none;stroke:#000000;stroke-width:0.07086614;stroke-linecap:butt;stroke-linejoin:miter;stroke-miterlimit:4;stroke-dasharray:none;stroke-opacity:1"
       d="m 528.85353,10.586649 -11.31418,0.003 -0.0182,35.73062 27.43151,0.0945 0.14191,94.994801 -27.53761,-1e-5 -0.10991,50.67212 11.40649,-0.0775"
       id="path2053-8"
       inkscape:connector-curvature="0"
       sodipodi:nodetypes="cccccccc" />
    <path
       id="path4546"
       inkscape:label="part"
       style="fill:none;stroke:#000000;stroke-width:0.07086614;stroke-miterlimit:4;stroke-dasharray:none"
       d="m 288.09161,14.125334 20.23937,0 0,-11.3385825 15.45827,0 0,11.3385825 20.06929,0 0,-11.3385825 15.45827,0 0,11.3385825 20.06929,0 0,-11.3385825 15.45827,0 0,11.3385825 20.06929,0 0,-11.3385825 15.45827,0 0,11.3385825 20.23937,0"
       inkscape:connector-curvature="0" />
    <path
       id="path4552"
       inkscape:label="part"
       style="fill:none;stroke:#000000;stroke-width:0.07086614;stroke-miterlimit:4;stroke-dasharray:none"
       d="m 288.09161,97.27494 0,-3.949606 11.33859,0 0,-14.777953 -11.33859,0 0,-15.458267 11.33859,0 0,-14.777953 -11.33859,0 0,-15.458268 11.33859,0 0,-14.777953 -11.33859,0 0,-3.949606"
       inkscape:connector-curvature="0" />
    <path
       id="path4582"
       inkscape:label="part"
       style="fill:none;stroke:#000000;stroke-width:0.07086614;stroke-miterlimit:4;stroke-dasharray:none"
       d="m 15.147638,15.162402 3.609449,0 0,-11.3385831 15.458267,0 0,11.3385831 14.777953,0 0,-11.3385831 15.458268,0 0,11.3385831 14.777953,0 0,-11.3385831 15.458267,0 0,11.3385831 3.609445,0"
       inkscape:connector-curvature="0" />
    <path
       id="path4584"
       inkscape:label="part"
       style="fill:none;stroke:#000000;stroke-width:0.07086614;stroke-miterlimit:4;stroke-dasharray:none"
       d="m 98.29724,15.162402 0,8.333858 11.33859,0 0,15.458268 -11.33859,0 0,19.502362 11.33859,0 0,15.458267 -11.33859,0 0,19.502363 11.33859,0 0,15.45827 -11.33859,0 0,8.33386"
       inkscape:connector-curvature="0" />
    <path
       id="path4586"
       inkscape:label="part"
       style="fill:none;stroke:#000000;stroke-width:0.07086614;stroke-miterlimit:4;stroke-dasharray:none"
       d="m 98.29724,117.20965 -3.609445,0 0,11.33858 -15.458267,0 0,-11.33858 -14.777953,0 0,11.33858 -15.458268,0 0,-11.33858 -14.777953,0 0,11.33858 -15.458267,0 0,-11.33858 -3.609449,0"
       inkscape:connector-curvature="0" />
    <path
       id="path4626"
       inkscape:label="part"
       style="fill:none;stroke:#000000;stroke-width:0.07086614;stroke-miterlimit:4;stroke-dasharray:none"
       d="m 252.15673,112.38733 20.57953,0 0,11.33858 14.77795,0 0,-11.33858 20.74961,0 0,11.33858 14.77795,0 0,-11.33858 20.74961,0 0,11.33858 14.77795,0 0,-11.33858 20.74961,0 0,11.33858 14.77795,0 0,-11.33858 20.57953,0"
       inkscape:connector-curvature="0" />
    <path
       id="path4630"
       inkscape:label="part"
       style="fill:none;stroke:#000000;stroke-width:0.07086614;stroke-miterlimit:4;stroke-dasharray:none"
       d="m 414.67642,237.11173 -20.57953,0 0,-11.33858 -14.77795,0 0,11.33858 -20.74961,0 0,-11.33858 -14.77795,0 0,11.33858 -20.74961,0 0,-11.33858 -14.77795,0 0,11.33858 -20.74961,0 0,-11.33858 -14.77795,0 0,11.33858 -20.57953,0"
       inkscape:connector-curvature="0" />
    <path
       id="path4632"
       inkscape:label="part"
       style="fill:none;stroke:#000000;stroke-width:0.07086614;stroke-miterlimit:4;stroke-dasharray:none"
       d="m 252.15673,237.11173 0,-20.01259 11.33858,0 0,-14.77796 -11.33858,0 0,-20.18267 11.33858,0 0,-14.77796 -11.33858,0 0,-20.18267 11.33858,0 0,-14.77796 -11.33858,0 0,-20.01259"
       inkscape:connector-curvature="0" />
    <path
       id="path4654"
       inkscape:label="part"
       style="fill:none;stroke:#000000;stroke-width:0.07086614;stroke-miterlimit:4;stroke-dasharray:none"
       d="m 275.90551,98.267717 -20.23937,0 0,11.338583 -15.45827,0 0,-11.338583 -20.06929,0 0,11.338583 -15.45827,0 0,-11.338583 -20.06929,0 0,11.338583 -15.45826,0 0,-11.338583 -20.0693,0 0,11.338583 -15.45826,0 0,-11.338583 -20.23937,0"
       inkscape:connector-curvature="0" />
    <path
       id="path4656"
       inkscape:label="part"
       style="fill:none;stroke:#000000;stroke-width:0.07086614;stroke-miterlimit:4;stroke-dasharray:none"
       d="m 113.38583,98.267717 0,-3.949607 11.33858,0 0,-14.777953 -11.33858,0 0,-15.458267 11.33858,0 0,-14.777953 -11.33858,0 0,-15.458268 11.33858,0 0,-14.777952 -11.33858,0 0,-3.949607"
       inkscape:connector-curvature="0" />
    <path
       style="fill:none;stroke:#000000;stroke-width:0.07086614;stroke-linecap:butt;stroke-linejoin:miter;stroke-miterlimit:4;stroke-dasharray:none;stroke-opacity:1"
       d="m 450.6113,97.27494 0,-83.149602"
       id="path4727"
       inkscape:connector-curvature="0" />
    <path
       style="fill:none;stroke:#000000;stroke-width:0.07086614;stroke-linecap:butt;stroke-linejoin:miter;stroke-miterlimit:4;stroke-dasharray:none;stroke-opacity:1"
       d="m 275.90551,15.11811 0,83.149609"
       id="path4729"
       inkscape:connector-curvature="0" />
    <path
       style="fill:none;stroke:#000000;stroke-width:0.07086614;stroke-linecap:butt;stroke-linejoin:miter;stroke-miterlimit:4;stroke-dasharray:none;stroke-opacity:1"
       d="m 414.67642,237.11173 0,-124.72441"
       id="path4733"
       inkscape:connector-curvature="0" />
    <path
       style="fill:none;stroke:#000000;stroke-width:0.07086614;stroke-linecap:butt;stroke-linejoin:miter;stroke-miterlimit:4;stroke-dasharray:none;stroke-opacity:1"
       d="m 288.09161,97.27494 -0.21617,11.51994 162.47209,-0.0837 0.26377,-11.43623"
       id="path4735"
       inkscape:connector-curvature="0"
       sodipodi:nodetypes="cccc" />
    <path
       style="fill:none;stroke:#000000;stroke-width:0.07086614;stroke-linecap:butt;stroke-linejoin:miter;stroke-miterlimit:4;stroke-dasharray:none;stroke-opacity:1"
       d="m 113.38581,15.11812 -0.21617,-11.519941 162.4721,0.0837 0.26377,11.436231"
       id="path4735-7"
       inkscape:connector-curvature="0"
       sodipodi:nodetypes="cccc" />
    <path
       id="path4770"
       d="m 78.423059,70.458762 -0.10243,-0.10276 -1.07039,-1.07362 -0.75828,-1.4811 -0.25866,-1.64056 0.25866,-1.64408 0.75828,-1.48111 1.17282,-1.17637 1.48466,-0.75473 1.64055,-0.25867 1.64408,0.25867 1.48113,0.75473 0.88582,0.88583 0.29053,0.29054 0.75474,1.48111 0.25866,1.64408 -0.25866,1.64056 -0.75474,1.4811 -0.29053,0.29055 -0.78307,0.78307 -0.10275,0.10276 -1.48113,0.75473 -1.64408,0.26219 -1.64055,-0.26219 -1.48466,-0.75473 m -55.59803,-5.94212 0.25867,1.64408 -0.25867,1.64056 -0.75471,1.4811 -1.07363,1.07362 -0.10276,0.10276 -1.4811,0.75473 -1.64409,0.26219 -1.6441,-0.26219 -1.4811,-0.75473 -0.10275,-0.10276 -1.07363,-1.07362 -0.4748,-0.93177 -0.27991,-0.54933 -0.25867,-1.64056 0.25867,-1.64408 0.27991,-0.54933 0.4748,-0.93178 1.17638,-1.17637 1.4811,-0.75473 1.6441,-0.25867 1.64409,0.25867 1.4811,0.75473 1.17639,1.17637 z"
       inkscape:connector-curvature="0"
       style="fill:none;stroke:#000000;stroke-width:0.07086614;stroke-miterlimit:4;stroke-dasharray:none;stroke-opacity:1" />
    <path
       style="fill:none;stroke:#000000;stroke-width:0.07086614;stroke-linecap:butt;stroke-linejoin:miter;stroke-miterlimit:4;stroke-dasharray:none;stroke-opacity:1"
       d="M 15.147638,117.20964 3.6288579,117.38163 3.5451526,15.261102 15.147638,15.162402"
       id="path4781"
       inkscape:connector-curvature="0"
       sodipodi:nodetypes="cccc" />
    <rect
       ry="0.25390601"
       rx="4.5403199"
       y="36.558781"
       x="37.693256"
       height="61.366768"
       width="23.612314"
       id="rect4307-2"
       style="color:#000000;clip-rule:nonzero;display:inline;overflow:visible;visibility:visible;opacity:1;isolation:auto;mix-blend-mode:normal;color-interpolation:sRGB;color-interpolation-filters:linearRGB;solid-color:#000000;solid-opacity:1;fill:none;fill-opacity:1;fill-rule:nonzero;stroke:#000000;stroke-width:0.07086614;stroke-linecap:butt;stroke-linejoin:miter;stroke-miterlimit:4;stroke-dasharray:none;stroke-dashoffset:0;stroke-opacity:1;color-rendering:auto;image-rendering:auto;shape-rendering:auto;text-rendering:auto;enable-background:accumulate" />
    <path
       style="fill:none;stroke:#000000;stroke-width:0.07086614;stroke-linecap:butt;stroke-linejoin:miter;stroke-miterlimit:4;stroke-dasharray:none;stroke-opacity:1"
       d="m 252.38422,354.40187 1e-5,5.625"
       id="path4798"
       inkscape:connector-curvature="0" />
    <path
       style="fill:none;stroke:#000000;stroke-width:0.07086614;stroke-linecap:butt;stroke-linejoin:miter;stroke-miterlimit:4;stroke-dasharray:none;stroke-opacity:1"
       d="m 500.42289,11.899109 11.31418,0.003 0.0182,35.73062 -27.43151,0.0945 -0.14191,94.994801 27.53761,-1e-5 0.10991,50.67212 -11.40649,-0.0775"
       id="path2053-8-5"
       inkscape:connector-curvature="0"
       sodipodi:nodetypes="cccccccc" />
    <path
       style="fill:none;fill-rule:evenodd;stroke:#000000;stroke-width:0.07086614;stroke-linecap:butt;stroke-linejoin:miter;stroke-miterlimit:4;stroke-dasharray:none;stroke-opacity:1"
       d="m 510.56154,229.5291 0.25254,119.07651 58.57143,0.71429 -0.41842,-139.32904 -58.86729,-0.67096 z"
       id="path4253"
       inkscape:connector-curvature="0"
       sodipodi:nodetypes="cccccc" />
    <flowRoot
       xml:space="preserve"
       id="flowRoot4286"
       style="font-style:normal;font-weight:normal;font-size:5px;line-height:100%;font-family:sans-serif;letter-spacing:0px;word-spacing:0px;fill:#000000;fill-opacity:1;stroke:#0000ff;stroke-width:0.99921262;stroke-linecap:butt;stroke-linejoin:miter;stroke-miterlimit:4;stroke-dasharray:none;stroke-opacity:1"
       transform="translate(-0.61449036,-4.3306707)"><flowRegion
         id="flowRegion4288"><rect
           id="rect4290"
           width="53.285549"
           height="24.243668"
           x="518.96588"
           y="251.5162"
           style="stroke:#0000ff;stroke-width:0.99921262;stroke-miterlimit:4;stroke-dasharray:none;stroke-opacity:1" /></flowRegion><flowPara
         id="flowPara4292" /></flowRoot>    <flowRoot
       xml:space="preserve"
       id="flowRoot4294"
       style="fill:black;stroke:none;stroke-opacity:1;stroke-width:1px;stroke-linejoin:miter;stroke-linecap:butt;fill-opacity:1;font-family:sans-serif;font-style:normal;font-weight:normal;font-size:5px;line-height:100%;letter-spacing:0px;word-spacing:0px"><flowRegion
         id="flowRegion4296"><rect
           id="rect4298"
           width="20.203051"
           height="7.8286824"
           x="521.74377"
           y="251.26366" /></flowRegion><flowPara
         id="flowPara4300"></flowPara></flowRoot>  </g>
  <g
     inkscape:label="newlayer"
     inkscape:groupmode="layer"
     id="g4220"
     transform="translate(0.61449036,4.3306707)" />
  <g
     id="g4379"
     inkscape:groupmode="layer"
     inkscape:label="newlayer"
     transform="translate(0.61449036,4.3306707)" />
  <g
     inkscape:label="newlayer"
     inkscape:groupmode="layer"
     id="g4536"
     transform="translate(0.61449036,4.3306707)" />
  <g
     id="g4670"
     inkscape:groupmode="layer"
     inkscape:label="newlayer"
     transform="translate(0.61449036,4.3306707)" />
  <g
     id="g1078"
     inkscape:groupmode="layer"
     inkscape:label="newlayer"
     transform="translate(0.61449036,4.3306707)" />
  <g
     id="g1678"
     inkscape:groupmode="layer"
     inkscape:label="newlayer"
     transform="translate(0.61449036,4.3306707)" />
  <g
     id="g1957"
     inkscape:groupmode="layer"
     inkscape:label="newlayer"
     transform="translate(0.61449036,4.3306707)" />
  <g
     id="g2323"
     inkscape:groupmode="layer"
     inkscape:label="newlayer"
     transform="translate(0.61449036,4.3306707)" />
  <g
     id="g4667"
     inkscape:groupmode="layer"
     inkscape:label="newlayer"
     transform="translate(0.61449036,4.3306707)" />
</svg>
