<?xml version="1.0" encoding="UTF-8" standalone="no"?>
<!-- Created with Inkscape (http://www.inkscape.org/) -->

<svg
   xmlns:osb="http://www.openswatchbook.org/uri/2009/osb"
   xmlns:dc="http://purl.org/dc/elements/1.1/"
   xmlns:cc="http://creativecommons.org/ns#"
   xmlns:rdf="http://www.w3.org/1999/02/22-rdf-syntax-ns#"
   xmlns:svg="http://www.w3.org/2000/svg"
   xmlns="http://www.w3.org/2000/svg"
   xmlns:xlink="http://www.w3.org/1999/xlink"
   xmlns:sodipodi="http://sodipodi.sourceforge.net/DTD/sodipodi-0.dtd"
   xmlns:inkscape="http://www.inkscape.org/namespaces/inkscape"
   width="204.19713mm"
   height="177.79625mm"
   viewBox="0 0 723.53313 629.98671"
   id="svg2"
   version="1.1"
   inkscape:version="0.92.4 (5da689c313, 2019-01-14)"
   sodipodi:docname="CambusLaser.svg">
  <sodipodi:namedview
     id="base"
     pagecolor="#ffffff"
     bordercolor="#666666"
     borderopacity="1.0"
     inkscape:pageopacity="0.0"
     inkscape:pageshadow="2"
     inkscape:zoom="2.8"
     inkscape:cx="571.10656"
     inkscape:cy="321.96566"
     inkscape:document-units="mm"
     inkscape:current-layer="layer1"
     showgrid="false"
     inkscape:window-width="2560"
     inkscape:window-height="1361"
     inkscape:window-x="-9"
     inkscape:window-y="-9"
     inkscape:window-maximized="1"
     fit-margin-bottom="1"
     fit-margin-top="1"
     fit-margin-right="1"
     fit-margin-left="1" />
  <defs
     id="defs4">
    <linearGradient
       id="linearGradient4837"
       osb:paint="solid">
      <stop
         style="stop-color:#000000;stop-opacity:1;"
         offset="0"
         id="stop4835" />
    </linearGradient>
    <linearGradient
       id="linearGradient4817"
       osb:paint="solid">
      <stop
         style="stop-color:#000000;stop-opacity:1;"
         offset="0"
         id="stop4815" />
    </linearGradient>
    <linearGradient
       id="linearGradient4811"
       osb:paint="solid">
      <stop
         style="stop-color:#000000;stop-opacity:0.02912621;"
         offset="0"
         id="stop4809" />
    </linearGradient>
    <linearGradient
       id="linearGradient3921"
       osb:paint="solid">
      <stop
         style="stop-color:#000000;stop-opacity:1;"
         offset="0"
         id="stop3919" />
    </linearGradient>
    <linearGradient
       id="linearGradient2481"
       osb:paint="solid">
      <stop
         style="stop-color:#000002;stop-opacity:1;"
         offset="0"
         id="stop2479" />
    </linearGradient>
    <linearGradient
       id="linearGradient2446"
       osb:paint="solid">
      <stop
         style="stop-color:#000000;stop-opacity:0;"
         offset="0"
         id="stop2444" />
    </linearGradient>
    <linearGradient
       inkscape:collect="always"
       xlink:href="#linearGradient3921"
       id="linearGradient3923"
       x1="174.95007"
       y1="254.24596"
       x2="380.46198"
       y2="254.24596"
       gradientUnits="userSpaceOnUse"
       gradientTransform="rotate(-90,268.76576,245.19816)" />
  </defs>
  <metadata
     id="metadata7">
    <rdf:RDF>
      <cc:Work
         rdf:about="">
        <dc:format>image/svg+xml</dc:format>
        <dc:type
           rdf:resource="http://purl.org/dc/dcmitype/StillImage" />
        <dc:title />
      </cc:Work>
    </rdf:RDF>
  </metadata>
  <g
     inkscape:label="Layer 1"
     inkscape:groupmode="layer"
     id="layer1"
     transform="translate(0.03361637,0.79198866)">
    <path
       id="path1217"
       d=""
       inkscape:connector-curvature="0"
       style="fill:none;stroke:#0000ff;stroke-width:0.009375mm" />
    <path
       id="path1316"
       d=""
       inkscape:connector-curvature="0"
       style="fill:none;stroke:#0000ff;stroke-width:0.009375mm" />
    <path
       id="path1756"
       d="m 448.8839,170.61654 1.3748,0.21629 0.26929,0.0424 1.6441,-0.25866 1.48464,-0.75472 1.17992,-1.17992 0.75473,-1.48465 0.25866,-1.64409 -0.25866,-1.6441 -0.75473,-1.48464 -1.17992,-1.17992 -1.48464,-0.75473 -1.6441,-0.26221 -0.26929,0.0429 -1.3748,0.21926 -1.48464,0.75473 -1.17993,1.17992 -0.75472,1.48464 -0.26221,1.6441 0.26221,1.64409 0.75472,1.48465 1.17993,1.17992 1.48464,0.75472 m 173.62204,138.18898 1.6441,0.26221 0.26929,-0.0429 1.37481,-0.21926 1.48464,-0.75473 1.17992,-1.17992 0.75473,-1.48464 0.2622,-1.6441 -0.2622,-1.64409 -0.75473,-1.48464 -1.17992,-1.17993 -1.48464,-0.75472 -1.37481,-0.2163 -0.26929,-0.0424 -1.6441,0.25867 -1.48464,0.75472 -1.17992,1.17993 -0.75473,1.48464 -0.25866,1.64409 0.25866,1.6441 0.75473,1.48464 1.17992,1.17992 z"
       inkscape:connector-curvature="0"
       style="fill:none;stroke:#000000;stroke-width:0.07086614;stroke-miterlimit:4;stroke-dasharray:none;stroke-opacity:1"
       sodipodi:nodetypes="cccccccccccccccccccccccccccccccccccccccccccccc" />
    <path
       id="path1838"
       inkscape:label="part"
       style="fill:none;stroke:#000000;stroke-width:0.07086614;stroke-miterlimit:4;stroke-dasharray:none"
       d="m 413.95103,416.01449 h 17.31023 v -11.33857 h 15.45827 v 11.33857 h 17.14016 v -11.33857 h 15.45827 v 11.33857 h 17.14015 v -11.33857 h 15.45827 v 11.33857 h 17.14016 v -11.33857 h 15.45827 v 11.33857 h 17.14015 v -11.33857 h 15.45827 v 11.33857 h 17.14016 v -11.33857 h 15.45827 v 11.33857 h 17.14015 v -11.33857 h 15.45827 v 11.33857 h 17.31024"
       inkscape:connector-curvature="0" />
    <path
       id="path1840"
       inkscape:label="part"
       style="fill:none;stroke:#000000;stroke-width:0.07086614;stroke-miterlimit:4;stroke-dasharray:none"
       d="m 659.62032,416.01449 v 9.6189 h -11.33858 v 14.778 h 11.33858 v 9.6189"
       inkscape:connector-curvature="0" />
    <path
       id="path1844"
       inkscape:label="part"
       style="fill:none;stroke:#000000;stroke-width:0.07086614;stroke-miterlimit:4;stroke-dasharray:none"
       d="m 413.95103,450.03029 v -9.6189 h 11.33858 v -14.778 h -11.33858 v -9.6189"
       inkscape:connector-curvature="0" />
    <path
       id="path1874"
       inkscape:label="part"
       style="fill:none;stroke:#000000;stroke-width:0.07086614;stroke-miterlimit:4;stroke-dasharray:none"
       d="m 674.31549,224.73899 h 9.27874 v -11.33858 h 15.45827 v 11.33858 h 9.27874"
       inkscape:connector-curvature="0" />
    <path
       id="path1876"
       inkscape:label="part"
       style="fill:none;stroke:#000000;stroke-width:0.07086614;stroke-miterlimit:4;stroke-dasharray:none"
       d="m 708.33124,224.73899 v 4.68932 h 11.33858 v 15.45827 h -11.33858 v 15.85781 h 11.33858 v 15.45827 h -11.33858 v 15.85782 h 11.33858 v 15.45827 h -11.33858 v 15.85782 h 11.33858 v 15.45826 h -11.33858 v 15.85782 h 11.33858 v 15.45827 h -11.33858 v 15.85782 h 11.33858 v 15.45827 h -11.33858 v 4.68931"
       inkscape:connector-curvature="0" />
    <path
       id="path1878"
       inkscape:label="part"
       style="fill:none;stroke:#000000;stroke-width:0.07086614;stroke-miterlimit:4;stroke-dasharray:none"
       d="m 708.33124,406.15632 h -9.27874 v 11.33858 h -15.45827 v -11.33858 h -9.27874"
       inkscape:connector-curvature="0" />
    <path
       id="path1918"
       inkscape:label="part"
       style="fill:none;stroke:#000000;stroke-width:0.07086614;stroke-miterlimit:4;stroke-dasharray:none"
       d="m 412.07603,132.64469 h 17.65039 v 11.33858 h 14.77795 v -11.33858 h 17.82048 v 11.33858 h 14.77795 v -11.33858 h 17.82047 v 11.33858 h 14.77795 v -11.33858 h 17.82048 v 11.33858 h 14.77795 v -11.33858 h 17.82047 v 11.33858 h 14.77795 v -11.33858 h 17.82048 v 11.33858 h 14.77795 v -11.33858 h 17.82047 v 11.33858 h 14.77795 v -11.33858 h 17.6504"
       inkscape:connector-curvature="0" />
    <path
       id="path1920"
       inkscape:label="part"
       style="fill:none;stroke:#000000;stroke-width:0.07086614;stroke-miterlimit:4;stroke-dasharray:none"
       d="m 657.74532,132.64469 v 16.36806 h -11.33858 v 14.77795 h 11.33858 v 16.53813 h -11.33858 v 14.77795 h 11.33858 v 16.53814 h -11.33858 v 14.77795 h 11.33858 V 242.961 h -11.33858 v 14.77796 h 11.33858 v 16.53813 h -11.33858 v 14.77795 h 11.33858 v 16.53814 h -11.33858 v 14.77795 h 11.33858 v 16.36805"
       inkscape:connector-curvature="0" />
    <path
       id="path1922"
       inkscape:label="part"
       style="fill:none;stroke:#000000;stroke-width:0.07086614;stroke-miterlimit:4;stroke-dasharray:none"
       d="m 657.74532,336.73918 h -17.6504 V 325.4006 h -14.77795 v 11.33858 H 607.4965 V 325.4006 h -14.77795 v 11.33858 H 574.89807 V 325.4006 h -14.77795 v 11.33858 H 542.29965 V 325.4006 H 527.5217 v 11.33858 H 509.70122 V 325.4006 h -14.77795 v 11.33858 H 477.1028 V 325.4006 h -14.77795 v 11.33858 H 444.50437 V 325.4006 h -14.77795 v 11.33858 h -17.65039"
       inkscape:connector-curvature="0" />
    <path
       id="path1924"
       inkscape:label="part"
       style="fill:none;stroke:#000000;stroke-width:0.07086614;stroke-miterlimit:4;stroke-dasharray:none"
       d="m 412.07603,336.73918 v -16.36805 h 11.33858 v -14.77795 h -11.33858 v -16.53814 h 11.33858 v -14.77795 h -11.33858 v -16.53813 h 11.33858 V 242.961 h -11.33858 v -16.53813 h 11.33858 v -14.77795 h -11.33858 v -16.53814 h 11.33858 V 180.32883 H 412.07603 V 163.7907 h 11.33858 v -14.77795 h -11.33858 v -16.36806"
       inkscape:connector-curvature="0" />
    <path
       id="path1926"
       inkscape:label="part"
       style="fill:none;stroke:#000000;stroke-width:0.07086614;stroke-miterlimit:4;stroke-dasharray:none"
       d="m 674.49856,14.92957 h 9.27874 V 3.59099 h 15.45827 v 11.33858 h 9.27874"
       inkscape:connector-curvature="0" />
    <path
       id="path1930"
       inkscape:label="part"
       style="fill:none;stroke:#000000;stroke-width:0.07086614;stroke-miterlimit:4;stroke-dasharray:none"
       d="m 708.51431,196.3469 h -9.27874 v 11.33858 H 683.7773 V 196.3469 h -9.27874"
       inkscape:connector-curvature="0" />
    <path
       id="path1932"
       inkscape:label="part"
       style="fill:none;stroke:#000000;stroke-width:0.07086614;stroke-miterlimit:4;stroke-dasharray:none"
       d="m 674.49856,196.3469 v -4.68931 h -11.33858 v -15.45827 h 11.33858 V 160.3415 h -11.33858 v -15.45827 h 11.33858 v -15.85782 h -11.33858 v -15.45826 h 11.33858 V 97.70933 H 663.15998 V 82.25106 h 11.33858 V 66.39324 H 663.15998 V 50.93497 h 11.33858 V 35.07716 H 663.15998 V 19.61889 h 11.33858 v -4.68932"
       inkscape:connector-curvature="0" />
    <path
       id="path1944"
       inkscape:label="part"
       style="fill:none;stroke:#000000;stroke-width:0.07086614;stroke-miterlimit:4;stroke-dasharray:none"
       d="m 659.62032,355.5716 v 9.6189 h -11.33858 v 14.77794 h 11.33858 v 9.6189"
       inkscape:connector-curvature="0" />
    <path
       id="path1946"
       inkscape:label="part"
       style="fill:none;stroke:#000000;stroke-width:0.07086614;stroke-miterlimit:4;stroke-dasharray:none"
       d="m 659.62032,389.58734 h -17.31024 v 11.33858 h -15.45827 v -11.33858 h -17.14015 v 11.33858 h -15.45827 v -11.33858 h -17.14016 v 11.33858 h -15.45827 v -11.33858 h -17.14015 v 11.33858 h -15.45827 v -11.33858 h -17.14016 v 11.33858 h -15.45827 v -11.33858 h -17.14015 v 11.33858 h -15.45827 v -11.33858 h -17.14016 v 11.33858 h -15.45827 v -11.33858 h -17.31023"
       inkscape:connector-curvature="0" />
    <path
       id="path1948"
       inkscape:label="part"
       style="fill:none;stroke:#000000;stroke-width:0.07086614;stroke-miterlimit:4;stroke-dasharray:none"
       d="m 413.95103,389.58734 v -9.6189 h 11.33858 V 365.1905 h -11.33858 v -9.6189"
       inkscape:connector-curvature="0" />
    <path
       style="fill:none;stroke:#000000;stroke-width:0.07086614;stroke-linecap:butt;stroke-linejoin:miter;stroke-miterlimit:4;stroke-dasharray:none;stroke-opacity:1"
       d="m 413.95787,456.33519 -0.007,-11.93 z"
       id="path2017"
       inkscape:connector-curvature="0" />
    <path
       style="fill:none;stroke:#000000;stroke-width:0.07086614;stroke-linecap:butt;stroke-linejoin:miter;stroke-miterlimit:4;stroke-dasharray:none;stroke-opacity:1"
       d="m 413.95788,461.96019 245.5915,-0.5859 0.071,-11.3441"
       id="path2021"
       inkscape:connector-curvature="0" />
    <path
       style="fill:none;stroke:#000000;stroke-width:0.07086614;stroke-linecap:butt;stroke-linejoin:miter;stroke-miterlimit:4;stroke-dasharray:none;stroke-opacity:1"
       d="m 413.95781,343.64165 245.59151,0.58593 0.071,11.34402"
       id="path2021-4"
       inkscape:connector-curvature="0" />
    <path
       style="fill:none;stroke:#000000;stroke-width:0.07086614;stroke-linecap:butt;stroke-linejoin:miter;stroke-miterlimit:4;stroke-dasharray:none;stroke-opacity:1"
       d="m 413.96481,355.5716 -0.007,-11.92995 z"
       id="path2017-5"
       inkscape:connector-curvature="0" />
    <path
       style="fill:none;stroke:#000000;stroke-width:0.07086614;stroke-linecap:butt;stroke-linejoin:miter;stroke-miterlimit:4;stroke-dasharray:none;stroke-opacity:1"
       d="m 674.31549,224.73899 -11.31418,0.003 -0.0182,35.73062 27.43151,0.0945 0.14191,94.9948 -27.53761,-1e-5 -0.10991,50.67212 11.40649,-0.0775"
       id="path2053-8"
       inkscape:connector-curvature="0"
       sodipodi:nodetypes="cccccccc" />
    <path
       id="path2241"
       inkscape:label="part"
       style="fill:none;stroke:#000000;stroke-width:0.07086614;stroke-miterlimit:4;stroke-dasharray:none"
       d="m 121.05241,148.16352 v 5.49922 H 132.391 V 169.121 h -11.33859 v 16.66772 H 132.391 v 15.45827 H 121.05241 V 217.9147 H 132.391 v 15.45827 h -11.33859 v 16.66772 H 132.391 v 15.45827 h -11.33859 v 16.66771 H 132.391 v 15.45827 h -11.33859 v 16.66772 H 132.391 v 15.45826 h -11.33859 v 16.66772 H 132.391 v 15.45827 h -11.33859 v 5.49921"
       inkscape:connector-curvature="0" />
    <path
       id="path2245"
       inkscape:label="part"
       style="fill:none;stroke:#000000;stroke-width:0.07086614;stroke-miterlimit:4;stroke-dasharray:none"
       d="m 15.225645,367.37612 v -5.49921 H 3.887062 V 346.41864 H 15.225645 V 329.75092 H 3.887062 V 314.29266 H 15.225645 V 297.62494 H 3.887062 V 282.16667 H 15.225645 V 265.49896 H 3.887062 V 250.04069 H 15.225645 V 233.37297 H 3.887062 V 217.9147 H 15.225645 V 201.24699 H 3.887062 V 185.78872 H 15.225645 V 169.121 H 3.887062 v -15.45826 h 11.338583 v -5.49922"
       inkscape:connector-curvature="0" />
    <path
       id="path2293"
       inkscape:label="part"
       style="fill:none;stroke:#000000;stroke-width:0.07086614;stroke-miterlimit:4;stroke-dasharray:none"
       d="m 398.16699,391.65499 v 5.49921 h 11.33858 v 15.45827 h -11.33858 v 16.66772 h 11.33858 v 15.45826 h -11.33858 v 16.66772 h 11.33858 v 15.45827 h -11.33858 v 16.66771 h 11.33858 v 15.45827 h -11.33858 v 16.66772 h 11.33858 v 15.45827 h -11.33858 v 16.66771 h 11.33858 v 15.45827 h -11.33858 v 16.66772 h 11.33858 v 15.45826 h -11.33858 v 5.49922"
       inkscape:connector-curvature="0" />
    <path
       id="path2297"
       inkscape:label="part"
       style="fill:none;stroke:#000000;stroke-width:0.07086614;stroke-miterlimit:4;stroke-dasharray:none"
       d="m 292.34022,610.86759 v -5.49922 h -11.33859 v -15.45826 h 11.33859 v -16.66772 h -11.33859 v -15.45827 h 11.33859 v -16.66771 h -11.33859 v -15.45827 h 11.33859 v -16.66772 h -11.33859 v -15.45827 h 11.33859 v -16.66771 h -11.33859 v -15.45827 h 11.33859 v -16.66772 h -11.33859 v -15.45826 h 11.33859 V 412.61247 H 281.00163 V 397.1542 h 11.33859 v -5.49921"
       inkscape:connector-curvature="0" />
    <path
       id="path2301"
       inkscape:label="part"
       style="fill:none;stroke:#000000;stroke-width:0.07086614;stroke-miterlimit:4;stroke-dasharray:none"
       d="m 277.25163,383.72624 v 17.17796 h -11.33858 v 14.77795 h 11.33858 v 17.34803 h -11.33858 v 14.77795 h 11.33858 v 17.34803 h -11.33858 v 14.77796 h 11.33858 v 17.34803 h -11.33858 v 14.77795 h 11.33858 v 17.34803 h -11.33858 v 14.77796 h 11.33858 v 17.34803 h -11.33858 v 14.77795 h 11.33858 v 17.34803 h -11.33858 v 14.77795 h 11.33858 V 625.616"
       inkscape:connector-curvature="0" />
    <path
       id="path2305"
       inkscape:label="part"
       style="fill:none;stroke:#000000;stroke-width:0.07086614;stroke-miterlimit:4;stroke-dasharray:none"
       d="m 5.125636,625.616 v -17.17795 h 11.33859 V 593.6601 H 5.125636 v -17.34803 h 11.33859 V 561.53412 H 5.125636 v -17.34803 h 11.33859 V 529.40813 H 5.125636 V 512.0601 h 11.33859 V 497.28215 H 5.125636 v -17.34803 h 11.33859 V 465.15616 H 5.125636 v -17.34803 h 11.33859 V 433.03018 H 5.125636 v -17.34803 h 11.33859 V 400.9042 H 5.125636 v -17.17796"
       inkscape:connector-curvature="0" />
    <path
       style="fill:none;stroke:#000000;stroke-width:0.07086614;stroke-linecap:butt;stroke-linejoin:miter;stroke-miterlimit:4;stroke-dasharray:none;stroke-opacity:1"
       d="M 5.125636,625.616 H 277.25163"
       id="path2383"
       inkscape:connector-curvature="0" />
    <path
       style="fill:none;stroke:#000000;stroke-width:0.07086614;stroke-linecap:butt;stroke-linejoin:miter;stroke-miterlimit:4;stroke-dasharray:none;stroke-opacity:1"
       d="M 5.125636,383.72623 H 277.25163"
       id="path2385"
       inkscape:connector-curvature="0" />
    <path
       id="path2301-0"
       inkscape:label="part"
       style="fill:none;stroke:#000000;stroke-width:0.07086614;stroke-miterlimit:4;stroke-dasharray:none"
       d="m 408.32603,117.73478 v 17.17796 h -11.33857 v 14.77795 h 11.33857 v 17.34803 h -11.33857 v 14.77795 h 11.33857 v 17.34803 h -11.33857 v 14.77796 h 11.33857 v 17.34804 h -11.33857 v 14.77795 h 11.33857 v 17.34802 h -11.33857 v 14.77797 h 11.33857 v 17.34803 h -11.33857 v 14.77794 h 11.33857 v 17.34804 h -11.33857 v 14.77795 h 11.33857 v 17.17796"
       inkscape:connector-curvature="0" />
    <path
       id="path2305-8"
       inkscape:label="part"
       style="fill:none;stroke:#000000;stroke-width:0.07086614;stroke-miterlimit:4;stroke-dasharray:none"
       d="M 136.20004,359.62456 V 342.4466 h 11.33858 v -14.77795 h -11.33858 v -17.34804 h 11.33858 v -14.77794 h -11.33858 v -17.34803 h 11.33858 v -14.77797 h -11.33858 v -17.34802 h 11.33858 V 231.2907 h -11.33858 v -17.34804 h 11.33858 V 199.1647 h -11.33858 v -17.34803 h 11.33858 v -14.77795 h -11.33858 v -17.34803 h 11.33858 v -14.77795 h -11.33858 v -17.17796"
       inkscape:connector-curvature="0" />
    <path
       style="fill:none;stroke:#000000;stroke-width:0.07086614;stroke-linecap:butt;stroke-linejoin:miter;stroke-miterlimit:4;stroke-dasharray:none;stroke-opacity:1"
       d="M 136.20004,359.62456 H 408.32603"
       id="path2383-9"
       inkscape:connector-curvature="0" />
    <path
       style="fill:none;stroke:#000000;stroke-width:0.07086614;stroke-linecap:butt;stroke-linejoin:miter;stroke-miterlimit:4;stroke-dasharray:none;stroke-opacity:1"
       d="M 136.20004,117.73477 H 408.32603"
       id="path2385-2"
       inkscape:connector-curvature="0" />
    <path
       style="fill:none;stroke:#000000;stroke-width:0.07086614;stroke-linecap:butt;stroke-linejoin:miter;stroke-miterlimit:4;stroke-dasharray:none;stroke-opacity:1"
       d="m 15.225644,148.16353 -0.218557,-12.1153 106.285493,0.28579 -0.24017,11.82951"
       id="path2413"
       inkscape:connector-curvature="0"
       sodipodi:nodetypes="cccc" />
    <path
       style="fill:none;stroke:#000000;stroke-width:0.07086614;stroke-linecap:butt;stroke-linejoin:miter;stroke-miterlimit:4;stroke-dasharray:none;stroke-opacity:1"
       d="m 121.05241,367.37612 0.21856,12.1153 -106.285494,-0.28579 0.24018,-11.82951"
       id="path2413-2"
       inkscape:connector-curvature="0"
       sodipodi:nodetypes="cccc" />
    <path
       style="fill:none;stroke:#000000;stroke-width:0.07086614;stroke-linecap:butt;stroke-linejoin:miter;stroke-miterlimit:4;stroke-dasharray:none;stroke-opacity:1"
       d="m 398.16699,610.86758 0.21856,12.1153 -106.2855,-0.28579 0.24018,-11.82951"
       id="path2413-9"
       inkscape:connector-curvature="0"
       sodipodi:nodetypes="cccc" />
    <path
       style="fill:none;stroke:#000000;stroke-width:0.07086614;stroke-linecap:butt;stroke-linejoin:miter;stroke-miterlimit:4;stroke-dasharray:none;stroke-opacity:1"
       d="m 292.34023,391.65498 -0.21856,-12.1153 106.2855,0.28579 -0.24018,11.82951"
       id="path2413-7"
       inkscape:connector-curvature="0"
       sodipodi:nodetypes="cccc" />
    <path
       id="path2468"
       d="m 375.67259,134.51533 1.35355,-0.68973 0.12757,-0.065 1.64409,-0.25865 1.48818,0.23411 0.1559,0.0245 1.48113,0.75472 1.17635,1.17638 0.75474,1.48111 0.25867,1.64411 -0.25867,1.64411 -0.75474,1.4811 -1.17635,1.17638 -1.48113,0.75472 -0.1559,0.0245 -1.48818,0.23411 -1.64409,-0.25865 -0.12757,-0.065 -1.35355,-0.68973 -1.17635,-1.17638 -0.75475,-1.4811 -0.25865,-1.64411 0.25865,-1.64411 0.75475,-1.48111 1.17635,-1.17638 m -181.54487,88.58268 1.17638,1.17638 0.75473,1.4811 0.25866,1.64412 -0.25866,1.64411 -0.75473,1.4811 -1.17638,1.17638 -1.4811,0.75471 -1.03464,0.1628 -0.60945,0.0959 -1.6441,-0.25867 -1.4811,-0.75471 -1.17638,-1.17637 -0.75472,-1.48111 -0.25866,-1.64411 0.25866,-1.64411 0.75472,-1.4811 1.17638,-1.17638 1.4811,-0.75472 1.6441,-0.25865 0.60945,0.0959 1.03464,0.16279 1.4811,0.75472 m -18.94252,105.54451 1.6441,-0.25865 0.2693,0.0424 1.37481,0.21629 1.4811,0.75474 1.17637,1.17635 0.75472,1.48113 0.25866,1.64408 -0.25866,1.64409 -0.75472,1.48113 -1.17637,1.17635 -1.4811,0.75474 -1.37481,0.21629 -0.2693,0.0424 -1.6441,-0.25865 -1.4811,-0.75474 -1.17638,-1.17636 -0.75471,-1.48112 -0.25866,-1.64409 0.25866,-1.64408 0.75471,-1.48113 1.17638,-1.17635 1.4811,-0.75474 m 201.58229,-99.59879 -0.75474,1.4811 -1.17636,1.17638 -1.48112,0.75471 -0.32596,0.0513 -1.31813,0.2074 -1.64407,-0.25866 -1.48113,-0.75471 -1.17636,-1.17638 -0.75474,-1.4811 -0.25866,-1.64411 0.25866,-1.64411 0.75474,-1.4811 1.17636,-1.17638 1.48113,-0.75472 1.64407,-0.25865 1.31813,0.20739 0.32596,0.0513 1.48112,0.75472 1.17636,1.17638 0.75474,1.4811 0.25865,1.64411 z"
       inkscape:connector-curvature="0"
       style="fill:none;stroke:url(#linearGradient3923);stroke-width:0.07086614;stroke-miterlimit:4;stroke-dasharray:none" />
    <path
       id="path3943"
       d="m 58.583036,570.55452 0.11337,0.72069 0.14528,0.92341 0.75472,1.4811 0.9992,0.9992 0.17718,0.17718 1.4811,0.75471 1.64411,0.25867 1.64411,-0.25867 1.4811,-0.75471 0.17712,-0.17718 0.99926,-0.9992 0.75471,-1.4811 0.25866,-1.6441 -0.25866,-1.6441 -0.75471,-1.4811 -1.17638,-1.17638 -1.07009,-0.54527 -0.41101,-0.20946 -1.64411,-0.25865 -1.64411,0.25865 -1.4811,0.75473 -1.17638,1.17638 -0.75472,1.4811 -0.14528,0.92339 -0.11337,0.72071 m 0.25865,-95.79685 0.75472,1.4811 1.17638,1.17638 1.4811,0.75473 1.64411,0.25866 1.64054,-0.25866 1.48467,-0.75473 1.17281,-1.17638 0.75828,-1.4811 0.25866,-1.64409 -0.004,-0.0283 -0.25417,-1.61575 -0.75828,-1.48111 -1.17281,-1.17637 -1.48467,-0.75473 -1.64054,-0.25866 -1.64411,0.25866 -1.4811,0.75473 -1.17638,1.17637 -0.75472,1.48111 -0.25422,1.61575 -0.004,0.0283 0.25865,1.64409 m 185.005764,116.63858 1.17638,1.17283 1.4811,0.75827 1.64411,0.25867 1.64054,-0.25867 1.48464,-0.75827 1.17284,-1.17283 0.75826,-1.48465 0.1134,-0.71929 0.14528,-0.92126 -0.25868,-1.64409 -0.75826,-1.4811 -1.17284,-1.17638 -1.48464,-0.75473 -1.64054,-0.25866 -1.64411,0.25866 -1.4811,0.75473 -1.17638,1.17638 -0.75472,1.4811 -0.25865,1.64409 0.14525,0.92126 0.1134,0.71929 0.75472,1.48465 m 5.81456,-171.55984 0.25868,-1.64409 -0.25868,-1.6441 -0.75471,-1.4811 -0.0354,-0.0354 -1.14094,-1.14095 -1.4811,-0.75472 -1.64409,-0.25866 -1.64411,0.25866 -0.12754,0.065 -1.35356,0.68972 -1.14094,1.14095 -0.0354,0.0354 -0.75471,1.4811 -0.25866,1.6441 0.25866,1.64409 0.75471,1.4811 1.17638,1.17638 1.35356,0.68973 0.12754,0.065 1.64411,0.25866 1.64409,-0.25866 1.11969,-0.57056 0.36141,-0.18417 1.17638,-1.17638 z"
       inkscape:connector-curvature="0"
       style="fill:none;stroke:#000001;stroke-width:0.07086614;stroke-miterlimit:4;stroke-dasharray:none;stroke-opacity:1" />
    <path
       id="path4546"
       inkscape:label="part"
       style="fill:none;stroke:#000000;stroke-width:0.07086614;stroke-miterlimit:4;stroke-dasharray:none"
       d="m 288.09161,14.125334 h 20.23937 V 2.7867515 h 15.45827 V 14.125334 h 20.06929 V 2.7867515 h 15.45827 V 14.125334 H 379.3861 V 2.7867515 h 15.45827 V 14.125334 h 20.06929 V 2.7867515 h 15.45827 V 14.125334 h 20.23937"
       inkscape:connector-curvature="0" />
    <path
       id="path4552"
       inkscape:label="part"
       style="fill:none;stroke:#000000;stroke-width:0.07086614;stroke-miterlimit:4;stroke-dasharray:none"
       d="M 288.09161,97.27494 V 93.325334 H 299.4302 V 78.547381 H 288.09161 V 63.089114 H 299.4302 V 48.311161 H 288.09161 V 32.852893 H 299.4302 V 18.07494 h -11.33859 v -3.949606"
       inkscape:connector-curvature="0" />
    <path
       id="path4582"
       inkscape:label="part"
       style="fill:none;stroke:#000000;stroke-width:0.07086614;stroke-miterlimit:4;stroke-dasharray:none"
       d="m 15.147638,15.162402 h 3.609449 V 3.8238189 H 34.215354 V 15.162402 H 48.993307 V 3.8238189 H 64.451575 V 15.162402 H 79.229528 V 3.8238189 H 94.687795 V 15.162402 h 3.609445"
       inkscape:connector-curvature="0" />
    <path
       id="path4584"
       inkscape:label="part"
       style="fill:none;stroke:#000000;stroke-width:0.07086614;stroke-miterlimit:4;stroke-dasharray:none"
       d="m 98.29724,15.162402 v 8.333858 h 11.33859 V 38.954528 H 98.29724 V 58.45689 h 11.33859 V 73.915157 H 98.29724 V 93.41752 h 11.33859 v 15.45827 H 98.29724 v 8.33386"
       inkscape:connector-curvature="0" />
    <path
       id="path4586"
       inkscape:label="part"
       style="fill:none;stroke:#000000;stroke-width:0.07086614;stroke-miterlimit:4;stroke-dasharray:none"
       d="m 98.29724,117.20965 h -3.609445 v 11.33858 H 79.229528 V 117.20965 H 64.451575 v 11.33858 H 48.993307 V 117.20965 H 34.215354 v 11.33858 H 18.757087 v -11.33858 h -3.609449"
       inkscape:connector-curvature="0" />
    <path
       id="path4626"
       inkscape:label="part"
       style="fill:none;stroke:#000000;stroke-width:0.07086614;stroke-miterlimit:4;stroke-dasharray:none"
       d="m 474.39029,4.301005 h 20.57953 v 11.338583 h 14.77795 V 4.301005 h 20.74961 v 11.338583 h 14.77795 V 4.301005 h 20.74961 v 11.338583 h 14.77795 V 4.301005 h 20.74961 v 11.338583 h 14.77795 V 4.301005 h 20.57953"
       inkscape:connector-curvature="0" />
    <path
       id="path4630"
       inkscape:label="part"
       style="fill:none;stroke:#000000;stroke-width:0.07086614;stroke-miterlimit:4;stroke-dasharray:none"
       d="M 636.90998,129.02541 H 616.33045 V 117.68683 H 601.5525 v 11.33858 h -20.74961 v -11.33858 h -14.77795 v 11.33858 h -20.74961 v -11.33858 h -14.77795 v 11.33858 h -20.74961 v -11.33858 h -14.77795 v 11.33858 h -20.57953"
       inkscape:connector-curvature="0" />
    <path
       id="path4632"
       inkscape:label="part"
       style="fill:none;stroke:#000000;stroke-width:0.07086614;stroke-miterlimit:4;stroke-dasharray:none"
       d="m 474.39029,129.02541 v -20.01259 h 11.33858 V 94.234863 H 474.39029 V 74.052186 h 11.33858 V 59.274233 H 474.39029 V 39.091556 h 11.33858 V 24.313603 H 474.39029 V 4.301005"
       inkscape:connector-curvature="0" />
    <path
       id="path4654"
       inkscape:label="part"
       style="fill:none;stroke:#000000;stroke-width:0.07086614;stroke-miterlimit:4;stroke-dasharray:none"
       d="M 275.90551,98.267717 H 255.66614 V 109.6063 H 240.20787 V 98.267717 H 220.13858 V 109.6063 H 204.68031 V 98.267717 H 184.61102 V 109.6063 H 169.15276 V 98.267717 h -20.0693 V 109.6063 H 133.6252 V 98.267717 h -20.23937"
       inkscape:connector-curvature="0" />
    <path
       id="path4656"
       inkscape:label="part"
       style="fill:none;stroke:#000000;stroke-width:0.07086614;stroke-miterlimit:4;stroke-dasharray:none"
       d="M 113.38583,98.267717 V 94.31811 h 11.33858 V 79.540157 H 113.38583 V 64.08189 h 11.33858 V 49.303937 H 113.38583 V 33.845669 h 11.33858 V 19.067717 H 113.38583 V 15.11811"
       inkscape:connector-curvature="0" />
    <path
       style="fill:none;stroke:#000000;stroke-width:0.07086614;stroke-linecap:butt;stroke-linejoin:miter;stroke-miterlimit:4;stroke-dasharray:none;stroke-opacity:1"
       d="M 450.6113,97.27494 V 14.125338"
       id="path4727"
       inkscape:connector-curvature="0" />
    <path
       style="fill:none;stroke:#000000;stroke-width:0.07086614;stroke-linecap:butt;stroke-linejoin:miter;stroke-miterlimit:4;stroke-dasharray:none;stroke-opacity:1"
       d="M 275.90551,15.11811 V 98.267719"
       id="path4729"
       inkscape:connector-curvature="0" />
    <path
       style="fill:none;stroke:#000000;stroke-width:0.07086614;stroke-linecap:butt;stroke-linejoin:miter;stroke-miterlimit:4;stroke-dasharray:none;stroke-opacity:1"
       d="M 636.90998,129.02541 V 4.3009982"
       id="path4733"
       inkscape:connector-curvature="0" />
    <path
       style="fill:none;stroke:#000000;stroke-width:0.07086614;stroke-linecap:butt;stroke-linejoin:miter;stroke-miterlimit:4;stroke-dasharray:none;stroke-opacity:1"
       d="m 288.09161,97.27494 -0.21617,11.51994 162.47209,-0.0837 0.26377,-11.43623"
       id="path4735"
       inkscape:connector-curvature="0"
       sodipodi:nodetypes="cccc" />
    <path
       style="fill:none;stroke:#000000;stroke-width:0.07086614;stroke-linecap:butt;stroke-linejoin:miter;stroke-miterlimit:4;stroke-dasharray:none;stroke-opacity:1"
       d="m 113.38581,15.11812 -0.21617,-11.519941 162.4721,0.0837 0.26377,11.436231"
       id="path4735-7"
       inkscape:connector-curvature="0"
       sodipodi:nodetypes="cccc" />
    <path
       id="path4770"
       d="m 78.423059,70.458762 -0.10243,-0.10276 -1.07039,-1.07362 -0.75828,-1.4811 -0.25866,-1.64056 0.25866,-1.64408 0.75828,-1.48111 1.17282,-1.17637 1.48466,-0.75473 1.64055,-0.25867 1.64408,0.25867 1.48113,0.75473 0.88582,0.88583 0.29053,0.29054 0.75474,1.48111 0.25866,1.64408 -0.25866,1.64056 -0.75474,1.4811 -0.29053,0.29055 -0.78307,0.78307 -0.10275,0.10276 -1.48113,0.75473 -1.64408,0.26219 -1.64055,-0.26219 -1.48466,-0.75473 m -55.59803,-5.94212 0.25867,1.64408 -0.25867,1.64056 -0.75471,1.4811 -1.07363,1.07362 -0.10276,0.10276 -1.4811,0.75473 -1.64409,0.26219 -1.6441,-0.26219 -1.4811,-0.75473 -0.10275,-0.10276 -1.07363,-1.07362 -0.4748,-0.93177 -0.27991,-0.54933 -0.25867,-1.64056 0.25867,-1.64408 0.27991,-0.54933 0.4748,-0.93178 1.17638,-1.17637 1.4811,-0.75473 1.6441,-0.25867 1.64409,0.25867 1.4811,0.75473 1.17639,1.17637 z"
       inkscape:connector-curvature="0"
       style="fill:none;stroke:#000000;stroke-width:0.07086614;stroke-miterlimit:4;stroke-dasharray:none;stroke-opacity:1" />
    <path
       style="fill:none;stroke:#000000;stroke-width:0.07086614;stroke-linecap:butt;stroke-linejoin:miter;stroke-miterlimit:4;stroke-dasharray:none;stroke-opacity:1"
       d="M 15.147638,117.20964 3.6288579,117.38163 3.5451526,15.261102 15.147638,15.162402"
       id="path4781"
       inkscape:connector-curvature="0"
       sodipodi:nodetypes="cccc" />
    <rect
       ry="0.25390601"
       rx="4.5403199"
       y="36.558781"
       x="37.693256"
       height="61.366768"
       width="23.612314"
       id="rect4307-2"
       style="color:#000000;clip-rule:nonzero;display:inline;overflow:visible;visibility:visible;opacity:1;isolation:auto;mix-blend-mode:normal;color-interpolation:sRGB;color-interpolation-filters:linearRGB;solid-color:#000000;solid-opacity:1;fill:none;fill-opacity:1;fill-rule:nonzero;stroke:#000000;stroke-width:0.07086614;stroke-linecap:butt;stroke-linejoin:miter;stroke-miterlimit:4;stroke-dasharray:none;stroke-dashoffset:0;stroke-opacity:1;color-rendering:auto;image-rendering:auto;shape-rendering:auto;text-rendering:auto;enable-background:accumulate" />
    <path
       style="fill:none;stroke:#000000;stroke-width:0.07086614;stroke-linecap:butt;stroke-linejoin:miter;stroke-miterlimit:4;stroke-dasharray:none;stroke-opacity:1"
       d="m 413.95787,456.33518 10e-6,5.625"
       id="path4798"
       inkscape:connector-curvature="0" />
    <path
       style="fill:none;stroke:#000000;stroke-width:0.07086614;stroke-linecap:butt;stroke-linejoin:miter;stroke-miterlimit:4;stroke-dasharray:none;stroke-opacity:1"
       d="m 315.77499,416.66424 v 170.07874 h 60.23624 V 416.66424 Z"
       id="path4841"
       inkscape:connector-curvature="0" />
    <path
       style="fill:none;stroke:#000000;stroke-width:0.07086614;stroke-linecap:butt;stroke-linejoin:miter;stroke-miterlimit:4;stroke-dasharray:none;stroke-opacity:1"
       d="m 708.51431,14.92957 11.31418,0.003 0.0182,35.73062 -27.43151,0.0945 -0.14191,94.9948 27.53761,-1e-5 0.10991,50.67212 -11.40649,-0.0775"
       id="path2053-8-5"
       inkscape:connector-curvature="0"
       sodipodi:nodetypes="cccccccc" />
  </g>
  <g
     inkscape:label="newlayer"
     inkscape:groupmode="layer"
     id="g4220"
     transform="translate(0.03361637,0.79198866)" />
  <g
     id="g4379"
     inkscape:groupmode="layer"
     inkscape:label="newlayer"
     transform="translate(0.03361637,0.79198866)" />
  <g
     inkscape:label="newlayer"
     inkscape:groupmode="layer"
     id="g4536"
     transform="translate(0.03361637,0.79198866)" />
  <g
     id="g4670"
     inkscape:groupmode="layer"
     inkscape:label="newlayer"
     transform="translate(0.03361637,0.79198866)" />
  <g
     id="g1078"
     inkscape:groupmode="layer"
     inkscape:label="newlayer"
     transform="translate(0.03361637,0.79198866)" />
  <g
     id="g1678"
     inkscape:groupmode="layer"
     inkscape:label="newlayer"
     transform="translate(0.03361637,0.79198866)" />
  <g
     id="g1957"
     inkscape:groupmode="layer"
     inkscape:label="newlayer"
     transform="translate(0.03361637,0.79198866)" />
  <g
     id="g2323"
     inkscape:groupmode="layer"
     inkscape:label="newlayer"
     transform="translate(0.03361637,0.79198866)" />
  <g
     id="g4667"
     inkscape:groupmode="layer"
     inkscape:label="newlayer"
     transform="translate(0.03361637,0.79198866)" />
</svg>
