<?xml version="1.0" encoding="UTF-8" standalone="no"?>
<!-- Created with Inkscape (http://www.inkscape.org/) -->

<svg
   xmlns:dc="http://purl.org/dc/elements/1.1/"
   xmlns:cc="http://creativecommons.org/ns#"
   xmlns:rdf="http://www.w3.org/1999/02/22-rdf-syntax-ns#"
   xmlns:svg="http://www.w3.org/2000/svg"
   xmlns="http://www.w3.org/2000/svg"
   xmlns:sodipodi="http://sodipodi.sourceforge.net/DTD/sodipodi-0.dtd"
   xmlns:inkscape="http://www.inkscape.org/namespaces/inkscape"
   id="svg8"
   version="1.1"
   viewBox="0 0 210 297"
   height="297mm"
   width="210mm"
   inkscape:version="0.92.3 (2405546, 2018-03-11)"
   sodipodi:docname="CamBus_axel_boxes.svg">
  <sodipodi:namedview
     inkscape:window-maximized="1"
     inkscape:window-y="-9"
     inkscape:window-x="-9"
     inkscape:window-height="1001"
     inkscape:window-width="1920"
     inkscape:lockguides="false"
     showguides="false"
     showgrid="false"
     inkscape:current-layer="svg8"
     inkscape:document-units="mm"
     inkscape:cy="957.5405"
     inkscape:cx="313.98528"
     inkscape:zoom="1.4"
     inkscape:pageshadow="2"
     inkscape:pageopacity="0.0"
     borderopacity="1.0"
     bordercolor="#666666"
     pagecolor="#ffffff"
     id="base" />
  <defs
     id="defs2">
    <filter
       height="13.170939"
       y="-6.0854694"
       width="2.3312559"
       x="-0.66562793"
       id="filter849"
       style="color-interpolation-filters:sRGB"
       inkscape:collect="always">
      <feGaussianBlur
         id="feGaussianBlur851"
         stdDeviation="31.194712"
         inkscape:collect="always" />
    </filter>
  </defs>
  <metadata
     id="metadata5">
    <rdf:RDF>
      <cc:Work
         rdf:about="">
        <dc:format>image/svg+xml</dc:format>
        <dc:type
           rdf:resource="http://purl.org/dc/dcmitype/StillImage" />
        <dc:title />
      </cc:Work>
    </rdf:RDF>
  </metadata>
  <g
     id="layer1"
     inkscape:groupmode="layer"
     inkscape:label="Layer 1">
    <path
       inkscape:connector-curvature="0"
       id="path847"
       d="m 41.577381,78.340772 c -0.251984,0.063 -0.503968,0.125992 -0.755954,0.188989 -0.063,0.063 -0.109302,0.149146 -0.188987,0.188987 -0.05635,0.02817 -0.144444,-0.04454 -0.188989,0 -0.04455,0.04454 0.04454,0.144444 0,0.188989 -0.186431,0.186433 -0.377976,-0.387252 -0.377976,0.188989 0,0.063 -0.02817,0.132641 0,0.188987 0.185497,0.370991 0.359154,0.08508 0.566965,0.188989 0.07968,0.03984 0.109305,0.149146 0.188987,0.188987 0.05635,0.02817 0.125992,0 0.188989,0 0.063,0 0.125992,0 0.188989,0 0.314979,0 0.62996,0 0.944939,0 1.826887,0 3.653771,0 5.480655,0 0.503968,0 1.007936,0 1.511906,0 0.377976,0 0.756912,0.02693 1.133928,0 0.694044,-0.04958 1.384596,-0.142704 2.078868,-0.188987 0.251426,-0.01675 0.503968,0 0.755954,0 0.188987,0 0.380548,0.03107 0.566963,0 0.1965,-0.03275 0.377975,-0.125992 0.566965,-0.188989 0.881943,-0.063 1.764696,-0.11556 2.645833,-0.188987 0.630915,-0.05258 1.258644,-0.140433 1.889882,-0.188989 0.188431,-0.0145 0.378912,0.01881 0.566962,0 1.072967,-0.107297 2.139831,-0.270679 3.212798,-0.377976 0.18805,-0.01881 0.379437,0.02344 0.566965,0 0.318739,-0.03984 0.626203,-0.149146 0.944941,-0.188989 1.194242,-0.149281 2.39653,-0.228695 3.590774,-0.377976 0.318736,-0.03984 0.624668,-0.164351 0.944939,-0.188987 1.320516,-0.101578 2.648553,-0.08337 3.96875,-0.188989 0.258913,-0.02072 0.497993,-0.158639 0.755954,-0.188989 4.523361,-0.532159 5.763376,-0.539893 10.016368,-0.944938 1.198115,-0.114107 2.39078,-0.285671 3.590774,-0.377979 0.439674,-0.03382 0.882224,0.01574 1.322917,0 1.323573,-0.04727 2.648235,-0.08741 3.96875,-0.188986 0.320273,-0.02463 0.629959,-0.125992 0.944941,-0.188989 1.385911,-0.063 2.771216,-0.141177 4.157736,-0.188987 0.440711,-0.01519 0.883603,0.0382 1.322917,0 1.011962,-0.088 2.012196,-0.286012 3.023806,-0.377976 0.37643,-0.03422 0.75685,0.02601 1.13393,0 2.29877,-0.158536 8.55788,-0.791903 10.39435,-0.944941 0.25111,-0.02093 0.50415,0.0097 0.75595,0 1.38632,-0.05332 2.77519,-0.07378 4.15774,-0.188989 0.88782,-0.07398 1.76038,-0.279593 2.64583,-0.377976 0.25044,-0.02783 0.50397,0 0.75595,0 0.88195,0 1.7648,0.04005 2.64584,0 1.19734,-0.05442 2.39323,-0.139091 3.59077,-0.188989 0.31471,-0.01312 0.63057,0.01966 0.94494,0 0.69446,-0.0434 1.3846,-0.142703 2.07887,-0.188987 0.25143,-0.01677 0.50397,0 0.75595,0 0.50397,0 1.00794,0 1.51191,0 1.63789,0 3.27579,0 4.91369,0 0.94494,0 1.88988,0 2.83482,0 0.47143,0 1.05628,-0.04142 1.5119,0 0.50581,0.04598 1.00577,0.14681 1.51191,0.188987 0.25111,0.02093 0.50397,0 0.75595,0 0.31498,0.063 0.62695,0.143563 0.94494,0.188989 0.12473,0.01781 0.25845,-0.03984 0.37798,0 0.0845,0.02817 0.10256,0.167381 0.18899,0.18899 0.18334,0.04584 0.37891,-0.01881 0.56696,0 0.44097,0.06299 0.88195,0.125991 1.32292,0.188986 0.12599,0.063 0.24132,0.154824 0.37797,0.188989 0.12223,0.03056 0.261,-0.04679 0.37798,0 1.294,-0.580593 1.23279,0.805381 1.88988,1.133928 0.11269,0.05634 0.25575,-0.03056 0.37798,0 1.27297,0.318243 0.003,0.0029 0.37797,0.377976 0.0446,0.04454 0.14444,-0.04455 0.18899,0 0.0445,0.04454 -0.0446,0.144444 0,0.188989 0.0996,0.0996 0.29984,0.07178 0.37798,0.188986 0.0699,0.104834 -0.0399,0.258451 0,0.377979 0.0282,0.08452 0.14914,0.109302 0.18898,0.188986 0.0282,0.05635 -0.0282,0.132644 0,0.18899 0.0399,0.07968 0.16082,0.104468 0.18899,0.188986 0.0582,0.174673 -0.0588,0.768654 0,0.944941 0.0446,0.133636 0.14445,0.244343 0.18899,0.377976 0.0355,0.106627 0,0.44278 0,0.566965 0,0.503968 0,1.007935 0,1.511906 0,0.755951 0,1.511903 0,2.267855 0,0.160385 0.0347,1.029745 0,1.13393 -0.0282,0.08452 -0.14915,0.109302 -0.18899,0.188986 -0.0282,0.05635 0,0.125992 0,0.18899 0,0.063 0,0.125991 0,0.188989 0,0.377976 0,0.755951 0,1.133927"
       style="fill:none;stroke:#000000;stroke-width:0.26458332px;stroke-linecap:butt;stroke-linejoin:miter;stroke-opacity:1;filter:url(#filter849)" />
  </g>
  <g
     id="g1083"
     inkscape:groupmode="layer"
     inkscape:label="newlayer" />
  <path
     id="path1091"
     style="fill:none;stroke:#000000;stroke-width:0.01;stroke-miterlimit:4;stroke-dasharray:none"
     d="m 156.87715,59.319156 v -3.045 h 3 v -5.91 h -3 v -6.09 h 3 v -5.91 h -3 v -3.045 m 30,24 h -5.955 v 3 h -6.09 v -3 h -5.91 v 3 h -6.09 v -3 h -5.955 m 30,-24 v 3.045 h -3 v 5.91 h 3 v 6.09 h -3 v 5.91 h 3 v 3.045 m -30,-24 h 5.955 v -3 h 6.09 v 3 h 5.91 v -3 h 6.09 v 3 h 5.955"
     inkscape:connector-curvature="0" />
  <path
     id="path1127"
     style="stroke:#000000;stroke-width:0.01;fill:none;stroke-miterlimit:4;stroke-dasharray:none"
     d="M 4,59 V 56.045 H 1 v -6.09 h 3 v -5.91 H 1 v -6.09 H 4 V 35 m 24,24 h -2.955 v 3 h -6.09 v -3 h -5.91 v 3 H 6.955 V 59 H 4 M 28,35 v 2.955 h 3 v 6.09 h -3 v 5.91 h 3 v 6.09 H 28 V 59 M 4,35 h 2.955 v -3 h 6.09 v 3 h 5.91 v -3 h 6.09 v 3 H 28" />
  <path
     id="path1171"
     style="stroke:#000000;stroke-width:0.01;fill:none;stroke-miterlimit:4;stroke-dasharray:none"
     d="m 32,62 v -6.045 h 3 v -5.91 h -3 v -6.09 h 3 v -5.91 H 32 V 32 m 30,30 h -6.045 v -3 h -5.91 v 3 h -6.09 v -3 h -5.91 v 3 H 32 M 62,32 v 6.045 h -3 v 5.91 h 3 v 6.09 h -3 v 5.91 h 3 V 62 M 32,32 h 6.045 v 3 h 5.91 v -3 h 6.09 v 3 h 5.91 V 32 H 62" />
  <path
     id="path1179"
     style="stroke:#000000;stroke-width:0.01;fill:none;stroke-miterlimit:4;stroke-dasharray:none"
     d="m 66,59 v -2.955 h -3 v -6.09 h 3 v -5.91 h -3 v -6.09 h 3 V 35 m 24,24 h -2.955 v 3 h -6.09 v -3 h -5.91 v 3 h -6.09 V 59 H 66 M 90,35 v 2.955 h 3 v 6.09 h -3 v 5.91 h 3 v 6.09 H 90 V 59 M 66,35 h 2.955 v -3 h 6.09 v 3 h 5.91 v -3 h 6.09 v 3 H 90" />
  <path
     id="path1187"
     style="stroke:#000000;stroke-width:0.01;fill:none;stroke-miterlimit:4;stroke-dasharray:none"
     d="m 94,62 v -6.045 h 3 v -5.91 h -3 v -6.09 h 3 v -5.91 H 94 V 32 m 30,30 h -6.045 v -3 h -5.91 v 3 h -6.09 v -3 h -5.91 v 3 H 94 m 30,-30 v 6.045 h -3 v 5.91 h 3 v 6.09 h -3 v 5.91 h 3 V 62 M 94,32 h 6.045 v 3 h 5.91 v -3 h 6.09 v 3 h 5.91 V 32 H 124" />
  <path
     id="path1195"
     style="fill:none;stroke:#000000;stroke-width:0.01;stroke-miterlimit:4;stroke-dasharray:none"
     d="m 32.09,28.05506 v -3.045 h 3 v -5.91 h -3 v -6.09 h 3 V 7.1000594 h -3 v -3.045 m 30,24.0000006 h -5.955 v 3 h -6.09 v -3 h -5.91 v 3 h -6.09 v -3 H 32.09 m 30,-24.0000006 v 3.045 h -3 V 13.01006 h 3 v 6.09 h -3 v 5.91 h 3 v 3.045 m -30,-24.0000006 h 5.955 v -3 h 6.09 v 3 h 5.91 v -3 h 6.09 v 3 h 5.955"
     inkscape:connector-curvature="0" />
  <path
     inkscape:connector-curvature="0"
     id="path1091-6"
     style="fill:none;stroke:#000000;stroke-width:0.01;stroke-miterlimit:4;stroke-dasharray:none"
     d="m 125.78723,59.098988 v -3.045 h 3 v -5.91 h -3 v -6.09 h 3 v -5.91 h -3 v -3.045 m 29.99999,24 h -5.95499 v 3 h -6.09001 v -3 h -5.90999 v 3 h -6.09001 v -3 h -5.95499 m 29.99999,-24 v 3.045 h -3 v 5.91 h 3 v 6.09 h -3 v 5.91 h 3 v 3.045 m -29.99999,-24 h 5.95499 v -3 h 6.09001 v 3 h 5.90999 v -3 h 6.09001 v 3 h 5.95499" />
  <path
     inkscape:connector-curvature="0"
     id="path1127-4"
     style="fill:none;stroke:#000000;stroke-width:0.01;stroke-miterlimit:4;stroke-dasharray:none"
     d="m 66.231372,28.05506 v -2.955 h -3 v -6.09 h 3 v -5.91 h -3 V 7.0100595 h 3 v -2.95498 M 90.231374,28.05506 h -2.955002 v 3 h -6.09 v -3 h -5.91 v 3 h -6.09 v -3 h -2.955 M 90.231374,4.0550795 v 2.95498 h 2.999999 V 13.10006 h -2.999999 v 5.91 h 2.999999 v 6.09 h -2.999999 v 2.955 M 66.231372,4.0550795 h 2.955 v -2.999968 h 6.09 v 2.999968 h 5.91 v -2.999968 h 6.09 v 2.999968 h 2.955002" />
  <path
     inkscape:connector-curvature="0"
     id="path1171-2"
     style="fill:none;stroke:#000000;stroke-width:0.01;stroke-miterlimit:4;stroke-dasharray:none"
     d="m 94.743277,31.154047 v -6.045 h 3 v -5.91 h -3 v -6.09 h 3 V 7.1990476 h -3 V 1.1540996 M 124.74329,31.154047 h -6.045 v -3 h -5.91 v 3 h -6.09 v -3 h -5.91001 v 3 H 94.743277 M 124.74329,1.1540996 v 6.044948 h -3 v 5.9099994 h 3 v 6.09 h -3 v 5.91 h 3 v 6.045 M 94.743277,1.1540996 h 6.045003 v 2.999968 h 5.91001 v -2.999968 h 6.09 v 2.999968 h 5.91 v -2.999968 h 6.045" />
  <path
     inkscape:connector-curvature="0"
     id="path1179-9"
     style="fill:none;stroke:#000000;stroke-width:0.01;stroke-miterlimit:4;stroke-dasharray:none"
     d="m 4.3339676,27.767083 v -2.955 h -2.999998 v -6.09 h 2.999998 v -5.91 H 1.3339696 V 6.7220832 h 2.999998 v -2.95498 M 28.334048,27.767083 h -2.955 v 3 h -6.09 v -3 h -5.91 v 3 H 7.2889876 v -3 h -2.95502 M 28.334048,3.7671032 v 2.95498 h 3 v 6.0899998 h -3 v 5.91 h 3 v 6.09 h -3 v 2.955 M 4.3339676,3.7671032 h 2.95502 v -2.999968 h 6.0900604 v 2.999968 h 5.91 v -2.999968 h 6.09 v 2.999968 h 2.955" />
  <path
     inkscape:connector-curvature="0"
     id="path1187-4"
     style="fill:none;stroke:#000000;stroke-width:0.01;stroke-miterlimit:4;stroke-dasharray:none"
     d="m 126.82218,31.154048 v -6.045 h 3 v -5.91 h -3 v -6.09 h 3 V 7.1990476 h -3 v -6.044948 m 30,29.9999484 h -6.045 v -3 h -5.91 v 3 h -6.09 v -3 h -5.91 v 3 h -6.045 m 30,-29.9999484 v 6.044948 h -3 v 5.9100004 h 3 v 6.09 h -3 v 5.91 h 3 v 6.045 m -30,-29.9999484 h 6.045 v 2.999968 h 5.91 v -2.999968 h 6.09 v 2.999968 h 5.91 v -2.999968 h 6.045" />
  <path
     id="path1195-6"
     style="fill:none;stroke:#000000;stroke-width:0.01;stroke-miterlimit:4;stroke-dasharray:none"
     d="m 157.63311,27.99627 v -3.044985 h 3 v -5.91 h -3 v -6.09 h 3 V 7.041284 h -3 v -3.045 m 30,23.999986 h -5.955 v 2.99997 h -6.09 v -2.99997 h -5.91 v 2.99997 h -6.09 v -2.99997 h -5.955 m 30,-23.999986 v 3.045 h -3 v 5.910001 h 3 v 6.09 h -3 v 5.91 h 3 v 3.044985 m -30,-23.999986 h 5.955 V 0.99628404 h 6.09 V 3.996284 h 5.91 V 0.99628404 h 6.09 V 3.996284 h 5.955"
     inkscape:connector-curvature="0" />
</svg>
